<svg
        width="24"
        height="16"
        viewBox="0 0 24 16"
        xmlns="http://www.w3.org/2000/svg"
        class="pbx-icon">

    <defs>
        <linearGradient x1="0%" y1="0%" x2="100%" y2="100%" id="cartesbancaires-a" gradientUnits="userSpaceOnUse"
                        gradientTransform="rotate(-21)">
            <stop stop-color="#2e2e79" offset="0%"/>
            <stop stop-color="#2581c4" offset="40%"/>
            <stop stop-color="#e6d6db" offset="50%"/>
            <stop stop-color="#e3756a" offset="60%"/>
            <stop stop-color="#c90c0f" offset="100%"/>
        </linearGradient>
        <clipPath id="roundedCorners" clipPathUnits="userSpaceOnUse">
            <rect fill="blue" height="16" rx="2" width="24"/>
        </clipPath>
    </defs>
    <g fill="none" fill-rule="evenodd" clip-path="url(#roundedCorners)">
        <path fill="url(#cartesbancaires-a)" d="M0 0h32v32H0z"/>
        <path transform="scale(0.7) translate(1, -5)"
              d="M17.6574137 10.0085759v6.008576h9.5906116c1.6592224 0 3.0042879-1.3450656 3.0042879-3.004288 0-1.6592224-1.3450655-3.004288-3.0042879-3.004288h-9.5906116zM16.8392966 16.0171519c-.0546447-1.1818648-.3494397-2.241752-.8464212-3.1416975-.5530245-1.0014293-1.3564062-1.8048111-2.3578355-2.3578355-1.0014294-.55302447-2.2009063-.85569157-3.5461209-.85569157H8.81787407c-1.34521467 0-2.54469155.3026671-3.54612087.85569157-1.00142933.5530244-1.80481109 1.3564062-2.35783553 2.3578355-.55302443 1.0014293-.85569154 2.2009062-.85569154 3.5461209 0 1.3452146.30266711 2.5446915.85569154 3.5461208.55302444 1.0014294 1.3564062 1.8048111 2.35783553 2.3578356 1.00142932.5530244 2.2009062.8556915 3.54612087.8556915H10.088919c1.3452146 0 2.5446915-.3026671 3.5461209-.8556915 1.0014293-.5530245 1.804811-1.3564062 2.3578355-2.3578356.4969815-.8999455.7917765-1.9598326.8464212-3.1416975h-7.154801v-.8088467h7.154801zM17.6574137 16.8259986v6.008576h9.5906116c1.6592224 0 3.0042879-1.3450656 3.0042879-3.004288 0-1.6592224-1.3450655-3.004288-3.0042879-3.004288h-9.5906116z"
              fill="#FFF"/>
    </g>
</svg>
