<svg xmlns="http://www.w3.org/2000/svg" width="34" height="24" viewBox="0 0 142 41" fill="none"><g clip-path="url(#clip0_614_3844)"><path d="M129.43 13.7502C132.647 13.7502 133.945 15.9974 133.945 17.5419H124.915C124.915 15.9791 126.227 13.7502 129.43 13.7502ZM133.219 24.4772C132.617 25.6496 131.241 26.4429 129.463 26.4429C126.106 26.4429 124.779 24.0399 124.743 21.8997H141.42C141.466 21.5983 141.589 20.7425 141.589 20.075C141.589 12.5163 136.407 8.24866 129.404 8.24866C122.022 8.24866 116.859 12.5163 116.859 20.075C116.859 27.6897 122.022 31.9015 129.448 31.9015C136.75 31.9015 140.18 27.8653 141.096 24.4772H133.219Z" fill="#221C46"/><path d="M13.2357 25.1092C10.2409 25.1092 8.11433 22.9545 8.11433 20.0938C8.11433 17.3664 10.1115 15.0785 13.2357 15.0785C16.3604 15.0785 18.3564 17.3798 18.3564 20.0938C18.3564 22.8505 16.3332 25.1092 13.2357 25.1092ZM15.4765 8.47607C12.1908 8.47607 9.37204 9.93095 7.91828 11.6408L7.91346 8.922H0.411621V40.1499H8.14518V28.9692C9.95916 30.9294 12.4856 31.6739 15.04 31.6739C22.7012 31.6739 26.2549 25.8622 26.2549 20.0747C26.2549 12.9324 21.6903 8.47607 15.4765 8.47607Z" fill="#221C46"/><path d="M36.5674 0H28.8022V31.2278H36.5674V0Z" fill="#221C46"/><path d="M55.3046 8.92212V20.5212C55.3046 22.2794 55.0635 23.1335 54.346 23.9857C53.6526 24.8092 52.5649 25.1975 51.3589 25.1975C50.1539 25.1975 49.0643 24.8092 48.3706 23.9857C47.653 23.1335 47.4133 22.2794 47.4133 20.5212V8.92212H39.6772L39.6783 21.2104C39.6783 24.6651 40.2046 26.9198 41.8567 28.8362C43.6043 30.863 46.2736 31.6689 48.8869 31.6689C51.9481 31.6689 54.0685 30.5144 55.534 28.8145L55.5389 31.2278H63.0406V8.92212H55.3046Z" fill="#221C46"/><path d="M88.261 8.92212H82.9748L77.1491 14.874L71.3234 8.92212H66.0371V14.2279L71.9672 20.075L66.0373 25.9221V31.2278H71.3235L77.1491 25.2761L82.9746 31.2278H88.2609V25.9221L82.3311 20.075L88.261 14.2279V8.92212Z" fill="#00EB5E"/><path d="M102.548 13.7502C105.765 13.7502 107.063 15.9974 107.063 17.5419H98.0325C98.0325 15.9791 99.3452 13.7502 102.548 13.7502ZM106.336 24.4772C105.735 25.6496 104.359 26.4429 102.581 26.4429C99.2242 26.4429 97.897 24.0399 97.8612 21.8997H114.538C114.585 21.5983 114.707 20.7425 114.707 20.075C114.707 12.5163 109.526 8.24866 102.522 8.24866C95.1399 8.24866 89.9771 12.5163 89.9771 20.075C89.9771 27.6897 95.1398 31.9015 102.566 31.9015C109.868 31.9015 113.298 27.8653 114.215 24.4772H106.336Z" fill="#221C46"/></g><defs><clipPath id="clip0_614_3844"><rect width="141.176" height="40.15" fill="white" transform="translate(0.411621)"/></clipPath></defs></svg>